<svg xmlns="http://www.w3.org/2000/svg" xmlns:xlink="http://www.w3.org/1999/xlink" width="1443" height="732" viewBox="0 0 1443 732"><defs><style>.a{fill:url(#a);}.b,.c,.d,.e,.g,.i{fill:none;}.c,.d,.e,.g,.i{stroke:#fff;stroke-miterlimit:10;}.c,.d,.g,.i{stroke-width:7.2px;}.c,.e,.f{opacity:0.107;}.d,.h{opacity:0.5;}.e{stroke-width:4.32px;}.i{opacity:0.3;}</style><linearGradient id="a" x1="0.629" y1="-0.012" x2="0.799" y2="1.183" gradientUnits="objectBoundingBox"><stop offset="0" stop-color="#00b8b0"/><stop offset="1" stop-color="#791764"/></linearGradient></defs><path class="a" d="M0,655.467S81.039,466.432,341,481.424s335-36,584-185S1261.3,14.252,1440.654,0c1.346,1.424-.869,132.424,0,167.424,3.972,159.99-.869,564-.869,564H0Z" transform="translate(0 0.576)"/><path class="b" d="M0,655.467S81.039,466.432,341,481.424s335-36,584-185S1261.3,14.252,1440.654,0c1.346,1.424-.869,132.424,0,167.424,3.972,159.99-.869,564-.869,564H0Z" transform="translate(0 0.576)"/><g transform="translate(144 105)"><path class="c" d="M13.076,0,0,22.711H26.153Z" transform="translate(731 471)"/><path class="d" d="M13.076,0,0,22.711H26.153Z" transform="translate(1201.153 22.711) rotate(180)"/><path class="c" d="M26.243,13.158A13.121,13.121,0,1,1,13.121,0,13.14,13.14,0,0,1,26.243,13.158Z" transform="translate(374 404)"/><path class="e" d="M16,8A8,8,0,1,1,8,0,8,8,0,0,1,16,8Z" transform="translate(0 494)"/><g class="f" transform="translate(1201.5 399.822) rotate(45)"><path class="g" d="M0,0V24.668" transform="translate(12)"/><path class="g" d="M24.6,0H0" transform="translate(0 12)"/></g><g class="h" transform="translate(581 402)"><path class="g" d="M0,0V24.668" transform="translate(12)"/><path class="g" d="M24.6,0H0" transform="translate(0 12)"/></g><path class="c" d="M0,10.83,11.519,0,23.038,10.83,34.559,0,46.081,10.83" transform="translate(439 521)"/><path class="i" d="M0,10.83,11.519,0,23.038,10.83,34.559,0,46.081,10.83" transform="translate(245.081 461.83) rotate(180)"/><path class="c" d="M0,21.13H21.071V0H0Z" transform="translate(909 393)"/><path class="i" d="M0,21.13H21.071V0H0Z" transform="translate(1252.941 207) rotate(45)"/></g></svg>