<svg xmlns="http://www.w3.org/2000/svg" width="37.965" height="37.965" viewBox="0 0 37.965 37.965"><defs><style>.a{fill:#fff;}</style></defs><path class="a" d="M18.985,37.965A18.981,18.981,0,0,1,5.56,5.56,18.982,18.982,0,1,1,32.4,32.4,18.855,18.855,0,0,1,18.985,37.965Zm3.735-16.8v7h4.67c.545,0,.831-.581.831-1.156V10.68c0-.617-.326-1.015-.831-1.015H11.06c-.51,0-.84.4-.84,1.015V27.01c0,.574.288,1.156.84,1.156h8.66v-7h-2.5v-3h2.5V16.1a3.453,3.453,0,0,1,3.71-3.66c.832,0,1.5.051,1.994.088l.3.022v2.616H24.085c-1.154,0-1.365.407-1.365,1.209v1.791h2.735l-.36,3Z" transform="translate(0 0)"/></svg>