<svg xmlns="http://www.w3.org/2000/svg" width="37.965" height="37.965" viewBox="0 0 37.965 37.965"><defs><style>.a{fill:#fff;}</style></defs><path class="a" d="M18.985,37.965A18.981,18.981,0,0,1,5.56,5.56,18.982,18.982,0,1,1,32.4,32.4,18.855,18.855,0,0,1,18.985,37.965ZM22.3,19.015c1.274,0,1.92.873,1.92,2.595v5.825h4.5V21.17c0-3.808-2.449-5.165-4.74-5.165a4.343,4.343,0,0,0-3.759,1.9V15.935H16.35c.049.982,0,11.394,0,11.5h3.87V21.34a2.508,2.508,0,0,1,.11-.93A2.111,2.111,0,0,1,22.3,19.015Zm-11.58-3.08v11.5h3.5v-11.5Zm1.571-5.141a2.052,2.052,0,0,0-2.2,2.04,2.077,2.077,0,0,0,2.145,2.1h.025a2.073,2.073,0,1,0,.025-4.14Z" transform="translate(0 0)"/></svg>