<svg xmlns="http://www.w3.org/2000/svg" xmlns:xlink="http://www.w3.org/1999/xlink" width="253.598" height="97.323" viewBox="0 0 253.598 97.323"><defs><style>.a{fill:none;}.b{clip-path:url(#a);}.c{fill:#2f343d;}.d{clip-path:url(#b);}.e{fill:#00b8b0;}</style><clipPath id="a"><path class="a" d="M0,0H23.114V30.215H0Z" transform="translate(0 0.173)"/></clipPath><clipPath id="b"><path class="a" d="M0,0H30.646V30.218H0Z" transform="translate(0.951 0.171)"/></clipPath></defs><g transform="translate(0 0)"><g transform="translate(0 55.324)"><path class="a" d="M0,0H23.114V30.215H0Z" transform="translate(0 0.173)"/><g class="b"><path class="c" d="M7.424,30.215a8.239,8.239,0,0,1-3.075-.552A6.8,6.8,0,0,1,2,28.131,6.466,6.466,0,0,1,.514,25.84,7.839,7.839,0,0,1,0,22.975a7.456,7.456,0,0,1,.744-3.361A9.152,9.152,0,0,1,2.768,16.93a14.236,14.236,0,0,1,2.994-2.107A31.763,31.763,0,0,1,9.4,13.174c1.3-.491,2.634-.925,3.956-1.289,1.346-.377,2.686-.733,3.982-1.057V9.02a12.149,12.149,0,0,0-.39-3.335,5.718,5.718,0,0,0-1.121-2.2,4.163,4.163,0,0,0-1.772-1.2,7.043,7.043,0,0,0-2.334-.362,6.383,6.383,0,0,0-2.375.373A3.668,3.668,0,0,0,7.9,3.3a3.331,3.331,0,0,0-.718,1.412A7.071,7.071,0,0,0,7,6.315a8.613,8.613,0,0,1-.125,1.46A3.418,3.418,0,0,1,6.427,9a2.487,2.487,0,0,1-.878.852,2.736,2.736,0,0,1-1.418.324A2.955,2.955,0,0,1,2.9,9.924a2.855,2.855,0,0,1-.958-.716,3.15,3.15,0,0,1-.619-1.084,4.039,4.039,0,0,1-.22-1.348A4.377,4.377,0,0,1,2.053,4.1,8.207,8.207,0,0,1,4.591,1.958,14.662,14.662,0,0,1,8.321.526,18.637,18.637,0,0,1,12.8,0a18.379,18.379,0,0,1,4.835.553,8.666,8.666,0,0,1,3.186,1.556,5.767,5.767,0,0,1,1.757,2.429A8.972,8.972,0,0,1,23.114,7.7v21.9H17.335V25.624c-.745.571-1.4,1.091-2.011,1.589A15.953,15.953,0,0,1,13.19,28.7a11.724,11.724,0,0,1-2.535,1.092A11.216,11.216,0,0,1,7.424,30.215Zm9.911-17.523c-.945.311-1.787.61-2.577.916-.932.358-1.789.734-2.621,1.15A25.376,25.376,0,0,0,9.7,16.128a13.578,13.578,0,0,0-2.044,1.584A7.324,7.324,0,0,0,6.265,19.5a4.038,4.038,0,0,0-.512,1.966,5.375,5.375,0,0,0,.387,2.016,5.876,5.876,0,0,0,1.041,1.672,4.851,4.851,0,0,0,1.5,1.13,3.932,3.932,0,0,0,1.769.427,6.709,6.709,0,0,0,1.849-.26,9.765,9.765,0,0,0,1.7-.687,16.88,16.88,0,0,0,1.643-1.014c.594-.424,1.132-.809,1.689-1.228Z" transform="translate(0 0.173)"/></g></g><path class="c" d="M0,.6H5.751V6.019a20.388,20.388,0,0,1,2.5-2.29,23.639,23.639,0,0,1,2.861-1.921A16.285,16.285,0,0,1,14.069.489,8.9,8.9,0,0,1,16.875,0a7.976,7.976,0,0,1,2.606.456,9.3,9.3,0,0,1,2.43,1.287,8.954,8.954,0,0,1,1.935,1.942A6.01,6.01,0,0,1,24.9,6.129a9.691,9.691,0,0,1,1.986-2.386A14.276,14.276,0,0,1,29.676,1.8,16.24,16.24,0,0,1,32.917.489,11.95,11.95,0,0,1,36.26,0a6.79,6.79,0,0,1,3.1.73A8.363,8.363,0,0,1,41.88,2.689a9.227,9.227,0,0,1,1.7,2.89A9.86,9.86,0,0,1,44.2,9.1v20.5H38.425V9.939a6.408,6.408,0,0,0-.418-2.31,6.594,6.594,0,0,0-1.121-1.915A5.345,5.345,0,0,0,35.235,4.4a4.261,4.261,0,0,0-2-.485,9.557,9.557,0,0,0-2.414.323,11.762,11.762,0,0,0-2.337.888,11.148,11.148,0,0,0-2.021,1.323A7.08,7.08,0,0,0,25,8.047V29.595H19.248V9.939a6.494,6.494,0,0,0-.415-2.31,6.275,6.275,0,0,0-1.146-1.915A5.771,5.771,0,0,0,16.013,4.4a4.269,4.269,0,0,0-2-.485,8.347,8.347,0,0,0-2.277.332,12.86,12.86,0,0,0-2.3.91,12.658,12.658,0,0,0-2.082,1.31A8.976,8.976,0,0,0,5.751,8.047V29.595H0Z" transform="translate(30.809 55.496)"/><path class="c" d="M5.754,41.827H0V.6H5.754V6.509c.561-.719,1.194-1.456,1.932-2.254a16.846,16.846,0,0,1,2.362-2.1A12.789,12.789,0,0,1,12.9.609,9.361,9.361,0,0,1,16.313,0a10.222,10.222,0,0,1,4.672,1.081,11.187,11.187,0,0,1,3.588,2.926,13.629,13.629,0,0,1,2.3,4.337,16.948,16.948,0,0,1,.812,5.3,21.135,21.135,0,0,1-1,6.622,15.959,15.959,0,0,1-2.84,5.252,12.842,12.842,0,0,1-4.454,3.455,13.688,13.688,0,0,1-5.884,1.24,18.859,18.859,0,0,1-2.242-.117,14.091,14.091,0,0,1-1.957-.379,11.147,11.147,0,0,1-1.8-.664,16.9,16.9,0,0,1-1.753-.969V41.826ZM13.743,3.919a7.4,7.4,0,0,0-2.414.393A9.86,9.86,0,0,0,9.168,5.349a11.63,11.63,0,0,0-1.876,1.5A14.846,14.846,0,0,0,5.754,8.615V21.759a5.5,5.5,0,0,0,.568,2.465,5.956,5.956,0,0,0,1.6,2.005,7.641,7.641,0,0,0,2.452,1.352,9.334,9.334,0,0,0,3.133.5,6.011,6.011,0,0,0,3.042-.82,8.114,8.114,0,0,0,2.481-2.34,12.138,12.138,0,0,0,1.674-3.6,16.834,16.834,0,0,0,.61-4.659,24.358,24.358,0,0,0-.572-5.6,13.206,13.206,0,0,0-1.577-3.985A6.976,6.976,0,0,0,16.773,4.7,6.1,6.1,0,0,0,13.743,3.919Z" transform="translate(81.623 55.496)"/><path class="c" d="M5.754,43.85H0V1.647L4.106,0H5.754Z" transform="translate(114.971 41.241)"/><path class="c" d="M6.207,43.848H.484V15.9l4.053-1.646h1.67V43.847ZM3.295,5.779A3.492,3.492,0,0,1,2.02,5.55,3.675,3.675,0,0,1,.986,4.931a3.13,3.13,0,0,1-.715-.919,2.462,2.462,0,0,1,0-2.246A3.135,3.135,0,0,1,.986.85,3.542,3.542,0,0,1,2.02.228,3.493,3.493,0,0,1,3.295,0,3.606,3.606,0,0,1,4.578.228,3.419,3.419,0,0,1,5.625.85a3.011,3.011,0,0,1,.718.917,2.416,2.416,0,0,1,.266,1.121,2.408,2.408,0,0,1-.266,1.125,3.006,3.006,0,0,1-.718.919,3.54,3.54,0,0,1-1.047.619A3.606,3.606,0,0,1,3.295,5.779Z" transform="translate(127.53 41.241)"/><path class="c" d="M18.494,35.2a8.677,8.677,0,0,1-3.075,3.164A8.968,8.968,0,0,1,10.7,39.529a6.085,6.085,0,0,1-2.528-.482,4.809,4.809,0,0,1-1.773-1.379,5.828,5.828,0,0,1-1.031-2.137,10.321,10.321,0,0,1-.342-2.758V12.344H0V10.908a8.055,8.055,0,0,0,3.994-.878A7.37,7.37,0,0,0,6.561,7.655,12.316,12.316,0,0,0,8.126,4.181C8.5,2.87,8.842,1.473,9.129,0h1.644V9.91h6.511v2.434H10.773V32.773a3.1,3.1,0,0,0,.242,1.217,3.161,3.161,0,0,0,.666.99,3,3,0,0,0,1,.66,3.17,3.17,0,0,0,1.229.243,3.323,3.323,0,0,0,1.763-.473,5.344,5.344,0,0,0,1.394-1.176Z" transform="translate(137.709 46.183)"/><path class="c" d="M5.751,0V20.627a4.4,4.4,0,0,0,.5,2.039,5.266,5.266,0,0,0,1.363,1.66,6.774,6.774,0,0,0,2.029,1.119,7.2,7.2,0,0,0,2.483.42A5.233,5.233,0,0,0,13.96,25.5a8.606,8.606,0,0,0,1.9-1.01,12.142,12.142,0,0,0,1.756-1.5,8.53,8.53,0,0,0,1.361-1.826V0h5.753V29H18.98v-5.43a11.729,11.729,0,0,1-1.9,2.35,14.544,14.544,0,0,1-2.487,1.932,13.467,13.467,0,0,1-2.756,1.3,8.372,8.372,0,0,1-2.682.47A8.9,8.9,0,0,1,5.592,28.9a9.208,9.208,0,0,1-2.919-1.931,9.013,9.013,0,0,1-1.96-2.85A8.578,8.578,0,0,1,0,20.627V0Z" transform="translate(159.689 56.093)"/><path class="c" d="M27.594,44.467H21.872V41.016a14.151,14.151,0,0,1-2.162,1.441,15.819,15.819,0,0,1-2.417,1.079,16.442,16.442,0,0,1-2.541.691,13.277,13.277,0,0,1-2.5.24,10.043,10.043,0,0,1-4.791-1.189,12.631,12.631,0,0,1-3.889-3.209,15.948,15.948,0,0,1-2.622-4.7A16.7,16.7,0,0,1,0,29.725a13.8,13.8,0,0,1,.556-3.883,16.186,16.186,0,0,1,1.535-3.637,16.626,16.626,0,0,1,2.373-3.17,16.054,16.054,0,0,1,3.1-2.527,15.431,15.431,0,0,1,3.631-1.66,13.788,13.788,0,0,1,4.036-.593,8.791,8.791,0,0,1,3.7.739,12.125,12.125,0,0,1,2.947,1.965V1.646L25.895,0h1.7ZM14.634,16.414a6.361,6.361,0,0,0-3.226.868,8.557,8.557,0,0,0-2.622,2.4,12.242,12.242,0,0,0-1.768,3.686,16.349,16.349,0,0,0-.648,4.711,18.083,18.083,0,0,0,.718,5.17,14.733,14.733,0,0,0,1.954,4.217,9.929,9.929,0,0,0,2.9,2.83A6.609,6.609,0,0,0,15.5,41.336a6.957,6.957,0,0,0,1.823-.24,9.7,9.7,0,0,0,1.723-.648A10.114,10.114,0,0,0,20.6,39.5a9.051,9.051,0,0,0,1.271-1.136V24.057a7.6,7.6,0,0,0-.635-3.119,7.881,7.881,0,0,0-1.663-2.417,7.637,7.637,0,0,0-2.321-1.551A6.653,6.653,0,0,0,14.634,16.414Z" transform="translate(189.824 41.241)"/><g transform="translate(222 55.324)"><path class="a" d="M0,0H30.646V30.218H0Z" transform="translate(0.951 0.171)"/><g class="d"><path class="c" d="M15.336,30.218A15.885,15.885,0,0,1,9.2,29.054a14.934,14.934,0,0,1-4.865-3.162,14.321,14.321,0,0,1-3.184-4.676A14.5,14.5,0,0,1,0,15.476,15.869,15.869,0,0,1,1.152,9.44,14.846,14.846,0,0,1,9.2,1.216,15.434,15.434,0,0,1,15.336,0,16.51,16.51,0,0,1,21.45,1.11a15.31,15.31,0,0,1,4.857,3.038A14.042,14.042,0,0,1,29.5,8.68a13.8,13.8,0,0,1,1.144,5.577,16.811,16.811,0,0,1-1.144,6.2,15.891,15.891,0,0,1-3.2,5.073,15.254,15.254,0,0,1-4.857,3.43A14.809,14.809,0,0,1,15.336,30.218Zm-1.4-28.058A5.313,5.313,0,0,0,11.124,3,8.392,8.392,0,0,0,8.739,5.3,12.161,12.161,0,0,0,7.075,8.7a13.386,13.386,0,0,0-.619,4.13,25.173,25.173,0,0,0,.678,5.945,16.743,16.743,0,0,0,1.94,4.843,10.155,10.155,0,0,0,3.132,3.268,7.6,7.6,0,0,0,4.216,1.2,5.826,5.826,0,0,0,3.117-.877,8.478,8.478,0,0,0,2.455-2.352,11.391,11.391,0,0,0,1.61-3.442,14.993,14.993,0,0,0,.564-4.16,30.55,30.55,0,0,0-.54-5.9,15.129,15.129,0,0,0-1.756-4.8A9.167,9.167,0,0,0,18.717,3.34,9.121,9.121,0,0,0,13.938,2.161Z" transform="translate(0.951 0.171)"/></g></g><path class="e" d="M6.179,0C2.766,0,0,15.031,0,33.576H12.365C12.365,15.031,9.6,0,6.179,0" transform="translate(165.621 17.529)"/><path class="e" d="M12.254,0C5.487,0,0,22.878,0,51.1H24.5C24.5,22.878,19.02,0,12.254,0" transform="translate(182.28)"/><path class="e" d="M3.576,0C1.6,0,0,8.7,0,19.429H7.152C7.152,8.7,5.553,0,3.576,0" transform="translate(154.255 31.676)"/></g></svg>